<svg xmlns="http://www.w3.org/2000/svg" viewBox="0 0 221.42 419.74"><defs><style>.cls-1,.cls-2{fill:#231f20;}.cls-2,.cls-4{stroke:#231f20;stroke-miterlimit:10;}.cls-3{fill:#e6e7e8;}.cls-4{fill:none;stroke-width:2px;}</style></defs><title>think</title><g id="line_art" data-name="line art"><path class="cls-1" d="M630.48,406.38A37.48,37.48,0,0,1,628.39,418a106.62,106.62,0,0,1,1.4,11.39,35.16,35.16,0,0,1-.09,3.7q0,.51-.06,1a7.66,7.66,0,0,1,2.32,2.62c.17.26.34.53.53.81a4.2,4.2,0,0,1,.21,3.2,4.55,4.55,0,0,0-.15,1.41,2.73,2.73,0,0,0,1.13.89,3.77,3.77,0,0,1,2.06,2.09,17.83,17.83,0,0,1,.6,2.7c1.75,3.44,2.45,7.2,3.17,11.12.06.31.11.62.17.93a11.67,11.67,0,0,1,1.92-2.24,1.22,1.22,0,0,1,1.47-.1c13.85,9.38,27.13,14.19,42.51,19.75l3.07,1.11c18.33,6.65,21.7,26.21,22.62,46.37.46,10,2.38,19.89,4.24,29.44,2.85,14.6,5.79,29.7,3.59,45.69-.31,2.29-.59,4.61-.88,7.06-1.3,10.86-2.65,22.1-7.25,31.73-3.61,7.58-11.4,10.77-19.78,12.33a26.8,26.8,0,0,1-5.06,2.83c-3.79,1.74-6.07,2.78-6.34,10.69-.12,3.42-.27,7.17-.44,11.14-.37,8.86-.23,2.71-.27,11l0,.39a5.47,5.47,0,0,1,.05.82A1.06,1.06,0,0,1,678,688.9l-1.28-.14c-.66,0,0-.29,0-1,0-8.55-.12-3,.27-12.29.16-4,.32-7.71.44-11.12.3-8.9,3.41-10.78,7.13-12.51l-1.1.11c-17.77,1.71-36,1.55-53.68,1.39-5.65,0-11.48-.1-17.18-.09h-.12c-10,0-20.28-2.78-29.39-5.24l-4.43-1.18-1.07-.28c-4.73-1.22-6.8-1.89-8.06-5.07a7.5,7.5,0,0,1-3.18,2.33c-4.37,1.43-18.58-3-24.12-7a33.74,33.74,0,0,0-8.12-1.22,13.76,13.76,0,0,1-3.05,1.09,3.8,3.8,0,0,0-.81,2.19,208.24,208.24,0,0,0-.75,21c0,7.31.16,5.71-.67,11.58-.38,2.72-.66,5-.91,7-.74,6.06-.18,3.37-2.45,10.64a1.18,1.18,0,0,1-1.14.84h-.88a1.2,1.2,0,1,1,0-2.39h0c2-6.54,1.39-3.69,2.09-9.38.25-2,.53-4.34.92-7.08.81-5.7.63-4,.65-11.25a207.89,207.89,0,0,1,.76-21.2,8,8,0,0,1,.41-1.82,8.33,8.33,0,0,1-1.24-.31c-3-1.06-4.76-2.67-5.22-4.78-.42-1.9.25-4,2-6.42a4.83,4.83,0,0,1-3.2-1.43c-1.66-1.66-2.35-4.87-.16-8.28a6,6,0,0,1,1.5-1.52l-.59-.12c-2.37-.6-3.61-1.32-4.14-2.41-.62-1.28-.06-2.56.54-3.91a13.16,13.16,0,0,0,1.08-3.23,15.63,15.63,0,0,0,.16-3.25c-.06-2.22,0-3.51,3.16-6.2,2.95-2.54,7.22-3.43,10.3-3.72a15.36,15.36,0,0,1,3.78.09,146,146,0,0,1-15.44-20.1c-4.92-7.86-8.09-16.72-11.16-25.28-1.17-3.25-2.37-6.6-3.63-9.8-4.34-11-8.23-22.93-7.4-36.21,1.57-25,22.65-31.07,41.25-36.45,3.68-1.06,7.15-2.06,10.5-3.2,5.19-1.76,9.22-3.58,13.25-7.19a26.68,26.68,0,0,0,2.6-3c2.23-2.8,4.75-6,7.94-5.74a7.7,7.7,0,0,1,3.8,1.29c-2.62-3.38-3.15-6.65-3.79-10.61-.17-1-.34-2.09-.56-3.23-.67-3.49-1.77-7.79-4.3-10.91-2.86-1.94-6.17-8.46-9.25-10.41-6.22-3.94-11.46-8.55-10.14-14.27a9.5,9.5,0,0,1,3.49-5.87c1.06-.88,1.83,2.55.09-1.42-.72-1.64-1.51-3.15-2.27-4.6a39.7,39.7,0,0,1-4-9.8c-2.67-11.48-4.77-23.55,1.22-33.77,7.24-12.35,20.12-17.82,29.66-20.24,10.75-2.72,20-1.7,27.37,3.06,6.65,4.26,11.37,11.16,14.87,19.12l.05.08a51.64,51.64,0,0,1,5.95,18.49c1.3,5.41,1.26,5.5,2.18,10.47,2.39-1.44,4-.93,5-.15,5.27,4.22,2.57,24.62.62,28.32a1.19,1.19,0,0,1-.79.61,1.23,1.23,0,0,1-1-.2m-18,250.55c5.15,0,10.39,0,15.47.09,17.59.15,35.79.31,53.43-1.38,2.32-.22,4.68-.51,7-.92a18.5,18.5,0,0,0,3.11-3.14c6.44-8.16,4.42-20.11-.44-28.34-4.48-7.58-11.58-10.23-19.09-13-2.33-.87-4.74-1.77-7.12-2.84a16,16,0,0,1-3.41-2,6.56,6.56,0,0,0-2.53,1.69c2.31,1.7,5.8,2.66,9.47,3.68,4.62,1.27,9.39,2.58,13,5.55,3.89,3.18,5.52,6.57,4.14,8.64-.59.89-2.6,2.63-8.43-.47a62.86,62.86,0,0,1-6.22-4,45.75,45.75,0,0,0-8.18-4.89l-1.24-.53c-4.75-2-8.85-3.79-13.06-1.7-2.45,1.22-3.21,3.06-4.08,5.2s-1.79,4.36-4.44,5.86c-3.76,2.14-9.21-.62-15-3.53-5-2.5-10.07-5.08-13.23-4a4.46,4.46,0,0,0-2.54,2.5,29.17,29.17,0,0,0,.26,3.11c.6,5.4.82,8.74-1.16,9.53-1.66.65-3.37-1.25-4.83-3.19-2.1-2.81-2.19-12.08-1.37-16.59-3.85,6.78-8.65,12.24-14.8,14.58a20.81,20.81,0,0,1-14.37-.05,8.48,8.48,0,0,1,.39,1.32c.95,4.55-.87,12.08-3.85,17,.86,3.59,2.09,3.91,6.94,5.16l1.07.28c1.46.38,2.95.79,4.45,1.19,9,2.42,19.13,5.16,28.77,5.16h1.85ZM667,598.85l.67.32c2.31,1,4.69,1.92,7,2.77,7.92,3,15.4,5.75,20.31,14.06,5.28,8.93,7.4,22,.26,31l-.57.69c6.18-1.66,11.55-4.59,14.19-10.14,4.43-9.28,5.75-20.31,7-31,.3-2.47.58-4.8.89-7.11,2.14-15.6-.76-30.49-3.56-44.9-1.88-9.64-3.82-19.6-4.29-29.79-.88-19.33-4-38.06-21-44.23l-3.07-1.11C669.54,474,656.34,469.2,642.55,460a13.09,13.09,0,0,0-2.13,3.42,32.39,32.39,0,0,0,2.45,7.22,35.18,35.18,0,0,1,4.67-.2c16.12.62,38.39,7,49.2,19.5a25,25,0,0,1,6.36,19.64c-1.3,12-7.82,21.71-14.12,31.12-2.65,4-5.4,8.07-7.71,12.28-3.88,7-9.9,20.81-11.75,31.56,0,.11.06.22.08.33.17.71.4,1.52.64,2.38.76,2.68,1.65,5.82,1.48,8.52,1.62-.09,3.43-.36,5.28-.64,6.73-1,15.1-2.26,18.94,5.5a1.19,1.19,0,0,1-.34,1.47c-4.81,3.76-11.66,1.49-18.29-.71-2.47-.81-4.88-1.61-7.13-2.1l-.21,0a1.19,1.19,0,0,1-.82-.24A17.09,17.09,0,0,0,667,598.85Zm-114,40.44c5.15,1.77,10.61,3,12.64,2.29a6.9,6.9,0,0,0,3.12-2.88c-.14-.68-.28-1.42-.41-2.25-.65-4-1.47-11.74.3-18a1,1,0,0,1,.13-.3c-.69-.38-1.38-.78-2.08-1.22a43,43,0,0,1-6.22-4.9,20.07,20.07,0,0,1,2.36,4.78c2.05,6.11,2.89,14.92-1.48,19.62C559.83,638,557.25,639.6,552.94,639.29Zm-9.77-4.67c1.39.33,2.86.71,4.41,1.11l2.66.69c4.18,1.06,7.31.5,9.31-1.65,3-3.19,3.34-10.11,1-17.23-2-5.84-7.38-10.43-12.64-14.88-2.1-1.78-4.1-3.46-5.85-5.21q-1.39-1.4-2.76-2.82a14.34,14.34,0,0,0-6.62-1c-2.24.21-6.37.91-9,3.15-2.4,2.07-2.39,2.64-2.33,4.32a18.64,18.64,0,0,1-.2,3.7,14.66,14.66,0,0,1-1.25,3.81c-.33.76-.71,1.62-.58,1.9s.44.6,2.58,1.14c1.4.36,3-.31,4.71-1,1.9-.79,3.87-1.61,5.91-1.16a1.2,1.2,0,0,1,.3,2.23c-.91.47-2.16.95-3.48,1.47-2.54,1-6,2.34-6.93,3.73-1.47,2.29-1.14,4.32-.15,5.3s2.71,1,4.41-.1a1.19,1.19,0,0,1,1.58.26,1.21,1.21,0,0,1-.1,1.61c-3,2.9-4.41,5.48-4,7.26.27,1.25,1.51,2.26,3.68,3a4.68,4.68,0,0,0,2.14.2l.17-.12a6.79,6.79,0,0,1,3.35-1.08c.81-.4,1.63-.85,2.46-1.32,2.41-1.34,4.91-2.73,7.39-2.77a1.24,1.24,0,0,1,1.11.7,1.18,1.18,0,0,1-.2,1.29,10.12,10.12,0,0,0-.62,1.4,17.81,17.81,0,0,1-.77,1.77ZM570.67,620c-1.28,5.45-.62,12-.14,15.33,1.81-4.12,2.9-9.32,2.19-12.69C572.32,620.67,571.5,620.08,570.67,620ZM538,633.53c.72.12,1.48.26,2.27.42a1,1,0,0,1,.16-.26,8.23,8.23,0,0,0,.84-1.71A22.78,22.78,0,0,0,538,633.53ZM606.32,606c-.9,3.55-.82,13.16.82,15.35a10.58,10.58,0,0,0,2,2.19c.32-1.32-.1-5.11-.29-6.83-.3-2.68-.39-3.64-.1-4.27a6.86,6.86,0,0,1,4-3.86c4.12-1.45,9.71,1.37,15.1,4.09,5,2.5,10.08,5.09,12.73,3.59,1.93-1.09,2.61-2.76,3.4-4.68a19.12,19.12,0,0,1,1.48-3.07l-.41.15c-7.14,2.52-15,.84-22.58-.78C616.74,606.71,611.36,605.56,606.32,606Zm-65.71-13.46c5.94,2.45,11.3,7.75,16.54,12.93,3.74,3.7,7.27,7.2,10.75,9.36,7.59,4.72,14.42,6,20.3,3.72,12-4.59,18.71-22.81,23.2-38.17,3.76-12.85,7.25-25.62,8.71-40.49a126,126,0,0,0,.23-15.3c-.18-7-.36-14.19,1.06-21.22.47-2.3,1.21-4.7,2-7.24,1.58-5.09,3.19-10.28,2.64-14.85-4.09,3.23-8.06,1.4-11.9-.36-1.12-.52-2.27-1-3.43-1.46s-2.32-.73-3.58-1.08c-4-1.13-8.57-2.41-11.37-6.21a10.55,10.55,0,0,1-1.16-2c-1.76,2.37-1.33,6.77-1,10.65a44,44,0,0,1,.3,4.6c-.06,5.78-1.36,11.68-2.8,17.73-.34,1.45-.69,2.94-1,4.45-2.3,10-4.91,21.32-10.17,30.09-2.63,4.39-5.45,6.47-8.37,6.24-.34,1.52-.62,3-.85,4.59a1.18,1.18,0,0,1,0,.59c-.06.28-.13.56-.2.83-.19,1.55-.33,3.1-.42,4.66a73.59,73.59,0,0,0,.45,8c1.09,12.83,1.53,22.76-3.32,24.32a1.19,1.19,0,0,1-.94-.1,1.14,1.14,0,0,1-.58-.74c-3.4-13-1.19-21.85,1.61-33.12q.36-1.41.72-2.88c-3.2.53-4.43,4.55-5.84,10.36-1.36,5.56-2.9,11.87-8.59,11.21a1.21,1.21,0,0,1-.93-.66c-3.15-6.36,2.68-14.78,6.16-19.81L559,551c.69-1,1.3-1.83,1.84-2.55,2.49-3.34,2.69-3.62.58-8.66a144.15,144.15,0,0,0-7-13.83,136.24,136.24,0,0,1-7.24-14.51c-2.34-5.79-1.31-7.75,0-8.38,2-1,5,1.32,7.64,5.84,3,5.13,4.68,10.33,6.44,15.84l.6,1.86c2.38,7.38,5.27,12.48,8,14.3a65,65,0,0,1,6.19-15.27c.73-1.28,1.51-2.5,2.27-3.67,2-3.07,3.86-6,4.53-9.76a39.44,39.44,0,0,0,.38-7.19,39.69,39.69,0,0,1,.53-8.12,26,26,0,0,1,2.7-6.58,21.51,21.51,0,0,0,2.37-5.75c.52-3-.68-5.34-2.06-8.09-.58-1.14-1.18-2.32-1.69-3.62a44.77,44.77,0,0,1-1.71-7.48c-1.38-7.65-3.25-18.13-9.44-18.56-1.93-.14-4,2.51-5.9,4.84a28.4,28.4,0,0,1-2.87,3.26c-4.33,3.88-8.6,5.82-14.08,7.68-3.4,1.15-7.07,2.21-10.61,3.23-18.71,5.41-38.05,11-39.52,34.3-.8,12.81,3,24.48,7.23,35.18,1.28,3.24,2.49,6.61,3.66,9.87,3,8.44,6.16,17.18,10.94,24.83A147.91,147.91,0,0,0,540.61,592.58ZM654.24,604c3.34,0,6.61,1.4,10,2.85l1.23.52a47.41,47.41,0,0,1,8.62,5.13,56.88,56.88,0,0,0,6,3.83c3.39,1.81,5.07,1.63,5.31,1.26s-.3-2.7-3.67-5.46-7.76-3.89-12.14-5.1-8.66-2.38-11.34-5a1.2,1.2,0,0,1-.15-1.55,9.22,9.22,0,0,1,3.27-3c-4.31-5-4.14-12.23-4-19.31a75.9,75.9,0,0,0-.14-9c-.5-5.18-1.46-10.34-2.38-15.33a145.63,145.63,0,0,1-2.72-19.66q-.14-3-.26-6c-.86-20.07-1.61-37.46-10.39-55.07l-.12,0c-1.14.12-2.3.24-3.45.32a142.43,142.43,0,0,0-.84,17c0,.72,0,1.39,0,2a197.06,197.06,0,0,0,5.08,46.52c1.17,4.93,2.79,9.8,4.35,14.52,2.44,7.31,4.95,14.87,5.84,22.86.15,1.31.37,2.81.61,4.39,1.09,7.3,2.61,17.47-2,23.61A11.19,11.19,0,0,1,654.24,604Zm-45.53-.43c4.65,0,9.49,1,14.21,2,7.27,1.55,14.78,3.15,21.28.87,9.63-3.39,7.74-16,6.36-25.25-.24-1.6-.47-3.12-.62-4.48-.86-7.73-3.33-15.17-5.73-22.37-1.58-4.76-3.22-9.68-4.41-14.72a199.81,199.81,0,0,1-5.15-47.1c0-.62,0-1.29,0-2a143.44,143.44,0,0,1,.8-16.9,15.9,15.9,0,0,1-5-.72,23.65,23.65,0,0,1-2.46,6.11c1.43,5.61-.55,12-2.37,17.86-.77,2.48-1.5,4.83-1.94,7-1.37,6.77-1.19,13.84-1,20.69a126.93,126.93,0,0,1-.24,15.59c-1.48,15.08-5,28-8.79,40.93a131.67,131.67,0,0,1-8.51,22.67h.07A26.41,26.41,0,0,1,608.71,603.54Zm65.63-5.61c1.24.38,2.48.79,3.72,1.2,5.86,1.94,11.41,3.78,15.22,1.66-3.26-5.18-9.69-4.22-15.93-3.28C676.33,597.66,675.33,597.81,674.34,597.93ZM644,473c8.62,17.82,9.4,36,10.23,55.22q.12,3,.26,6a143.9,143.9,0,0,0,2.68,19.33c.93,5,1.9,10.26,2.41,15.54a78.77,78.77,0,0,1,.15,9.23c-.16,7.2-.32,14.07,4.09,18.38.32-.07.66-.12,1-.16a7.84,7.84,0,0,1-2.53-5.55c-.49-5,1-10.18,2.37-15.19.08-.29.15-.57.23-.85a152.17,152.17,0,0,1-3.33-27.72c-.25-13.82,1.63-22.2,5.6-24.89,2.18-1.48,4-1.78,5.44-.87,2.67,1.68,3.15,7.06,1.54,17.42V539c-.69,4.41-1.54,8.79-2.36,13-1,5-2,10.18-2.69,15.38a60.2,60.2,0,0,1-1.73,7.64c.29,1.39.59,2.76.89,4.13,3.41-13.14,10.79-27.06,10.91-27.28,2.36-4.3,5.14-8.45,7.82-12.46,6.43-9.59,12.49-18.66,13.73-30a22.71,22.71,0,0,0-5.79-17.83c-11-12.78-34.44-18.17-47.48-18.67A28.59,28.59,0,0,0,644,473Zm22,107a31.53,31.53,0,0,0-1.31,10.72,5.57,5.57,0,0,0,1.79,4,4,4,0,0,0,.66.41,26.15,26.15,0,0,1-.06-10.51C666.72,583.11,666.36,581.55,666,580Zm3,12.31a14.24,14.24,0,0,0,.24,1.65C669.24,593.4,669.15,592.85,669.05,592.29ZM568,560.56c-1.62,7.44-2.37,14.38-.39,23.14,2.06-3.42,1.12-14.54.58-20.87C568.1,562.05,568,561.29,568,560.56ZM670.81,523.3a4.83,4.83,0,0,0-2.28,1c-1.84,1.24-4.86,5.87-4.56,22.87a140,140,0,0,0,2.33,22.3c.17-.82.31-1.62.42-2.42.73-5.27,1.74-10.47,2.72-15.51.82-4.21,1.67-8.56,2.34-12.92l0-.11c1.87-12.13.3-14.56-.46-15A.93.93,0,0,0,670.81,523.3ZM548.28,505.21c-.15.42-.19,2,1.16,5.32a132.26,132.26,0,0,0,7.11,14.25,145.42,145.42,0,0,1,7.09,14.06c2.54,6.07,2,7.2-.87,11-.53.71-1.12,1.51-1.8,2.48l-.16.24c-3,4.4-8.08,11.66-6.26,16.74,2.85-.15,3.94-3.73,5.32-9.42s2.94-12,8.57-12.25c.23-1.45.51-2.9.83-4.33-4.42-2.29-7.66-9.71-9.69-16l-.6-1.86c-1.72-5.38-3.34-10.45-6.22-15.36C550.64,506.49,548.85,505.31,548.28,505.21Zm32.41-56.63c2.86,4.25,4.06,10.94,5,16.35a44.61,44.61,0,0,0,1.58,7c.48,1.2,1.05,2.33,1.6,3.42,1.52,3,3,5.83,2.28,9.58a23.17,23.17,0,0,1-2.6,6.44,24.07,24.07,0,0,0-2.47,6,36.7,36.7,0,0,0-.48,7.63,42.57,42.57,0,0,1-.43,7.62c-.75,4.26-2.85,7.5-4.87,10.64-.74,1.14-1.5,2.33-2.2,3.55a62.72,62.72,0,0,0-6,14.82c1.83-.07,3.76-1.78,5.75-5.09,5.07-8.45,7.63-19.58,9.89-29.4l1-4.46c1.41-5.92,2.68-11.68,2.74-17.21a43,43,0,0,0-.29-4.33c-.43-4.33-.91-9.23,1.42-12.34a7.07,7.07,0,0,1,1.06-1.13c-.07-.33-.13-.66-.19-1a2.75,2.75,0,0,1-1.76-.51c-1.27-.92-1.72-2.93-1.55-6.93a21.78,21.78,0,0,1,.6-4,24.63,24.63,0,0,0-5.35-3.58A37.89,37.89,0,0,1,580.69,448.58Zm15.84,20.08a8.83,8.83,0,0,0,1.15,2.13c2.32,3.14,6.27,4.25,10.1,5.32,1.24.35,2.53.71,3.73,1.14s2.46,1,3.63,1.53c4.08,1.88,6.72,2.91,9.58.53a5.72,5.72,0,0,0,.69-.7,11.3,11.3,0,0,0-3.31-4.79c-3.84-3.39-14.63-6.9-21.74-6.16A11,11,0,0,0,596.53,468.66Zm5.84-3.5c7.68,0,17.48,3.48,21.32,6.86a14,14,0,0,1,3.22,4,32.45,32.45,0,0,0,1.39-4.11,35.91,35.91,0,0,1-4.22-2.64,21.42,21.42,0,0,0-7.44-3.75c-6.76-1.68-12.28-1.92-16.87-.75a29.88,29.88,0,0,0-2.9,1l-1,.36,0,.19a13.91,13.91,0,0,1,4.19-1A20.83,20.83,0,0,1,602.37,465.16Zm28.75,5.42a13.66,13.66,0,0,0,4.69.65,37.79,37.79,0,0,1,2.11-8c-.29-1.31-.53-2.61-.76-3.9-.33-1.76-.65-3.49-1.07-5.16a48,48,0,0,1-2.18,6.82c-.37,1-.74,2-1.11,3a48.19,48.19,0,0,0-1.24,4.69C631.41,469.33,631.27,470,631.12,470.58Zm7.91-3.09c-.3,1.16-.55,2.37-.76,3.63l2.07-.2A33.47,33.47,0,0,1,639,467.49ZM606,461.68a47.14,47.14,0,0,1,11.27,1.54,23.78,23.78,0,0,1,8.22,4.11,37.68,37.68,0,0,0,3.46,2.22c.11-.46.22-.93.33-1.37.43-1.84.83-3.57,1.31-4.94.37-1.07.76-2.1,1.13-3.1,1.54-4.13,2.82-7.56,2.35-11.61a16.33,16.33,0,0,0-2.67-3.71,6,6,0,0,0-1.76-1.37c-1.39-.73-1.56-1.44-2.19-5.07a15.17,15.17,0,0,1-.21-2.69,5.17,5.17,0,0,0-.74-.07,1.2,1.2,0,0,1-1.15-1.2c0-3.51-1.32-3.6-3.93-3.77a11.35,11.35,0,0,1-3.61-.66,13.75,13.75,0,0,1-3.4-2.25c-1.41-1.18-2.52-2.11-4.66-2-1.08,0-1.44.49-2,1.26a4.48,4.48,0,0,1-4.55,2.06,1.21,1.21,0,0,1-.66-.3c-1.54-1.35-4.4-3.64-5.55-4-3-1-5.25-.39-5.87.72s.16,2.62,1.94,4.13c4.71,4,4.39,6.29,3.69,11.29-.13.95-.28,2-.42,3.27a37.53,37.53,0,0,1-1.82,7.34c-.34,1.07-.68,2.11-1,3.15,1.68,2.41,1.89,5.32,2.09,8.13l.06.94.41-.16a31.23,31.23,0,0,1,3.14-1A27.52,27.52,0,0,1,606,461.68Zm-13.28-2.89,0,.53c-.17,4,.39,4.76.57,4.89l.06,0c0-.45-.07-.89-.1-1.33A26.38,26.38,0,0,0,592.67,458.79Zm-23.22-40.63a1.19,1.19,0,0,1,.86.37c3.45,3.6,4.8,8.77,5.59,12.86.23,1.18.4,2.26.57,3.3.76,4.66,1.26,7.74,4.94,11.34a26.67,26.67,0,0,0,5.26,3.49,35.14,35.14,0,0,1,4.89,3.09c.19-.63.39-1.26.59-1.88a36.17,36.17,0,0,0,1.72-6.87c.14-1.27.3-2.37.43-3.34.68-4.83.84-6-2.87-9.13-2.75-2.34-3.67-5-2.48-7.14,1.33-2.36,4.83-3.09,8.71-1.81,1.75.58,5,3.31,6.08,4.23,1.09.05,1.43-.39,2-1.17a4.66,4.66,0,0,1,3.83-2.19c3.06-.1,4.77,1.33,6.29,2.59a10.83,10.83,0,0,0,2.8,1.88,5.08,5.08,0,0,0,1.22.33,1.22,1.22,0,0,1-.44-.88c-.29-6.24,2.54-12,5.27-17.49l.06-.13a183.77,183.77,0,0,1-.22-21.92c.09-2.89.18-5.81.21-8.71-.33-1.85-.49-3.71-.66-5.52a35.76,35.76,0,0,0-1.61-9.13c-2.38-6.67-9.22-21.64-15.15-25.39s-15.31,1.13-22.89,5c-2.31,1.18-4.49,2.3-6.39,3.09s-5.49,1.21-8.83,1.57c-2.94.32-7,.76-7.77,1.47-2,1.85-1.34,4.39.08,8.35a20.56,20.56,0,0,1,1.4,5.45,11.71,11.71,0,0,1-2.13,7.66,8.43,8.43,0,0,0-1.51,6.63,21.15,21.15,0,0,0,1.71,5.22c1.46,3.41,3,6.94.74,11.53a1.2,1.2,0,0,1-.82.65,1.21,1.21,0,0,1-1-.26c-4.93-4.12-7.07-19-8.25-29.78-.6-5.54.47-8.8,1.83-12.93.31-.93.64-1.92,1-3a29,29,0,0,0,1-5.56c.31-2.88.63-5.87,2.77-9.14a25.16,25.16,0,0,1,6.8-6.72A37.91,37.91,0,0,0,550.47,342c-5.54,9.46-3.51,21-1,32a37.21,37.21,0,0,0,3.78,9.24c.77,1.49,1.58,3,2.33,4.75,2.22,5.06,1.18,2.6-.74,4.21a7.2,7.2,0,0,0-2.7,4.58c-1,4.33,3.33,8.05,9.1,11.71,2.6,1.65,4.28,6.8,6.94,8.43C568.46,417.09,569.19,418.16,569.45,418.16Zm60.24,19.41.06.39c.14.79.34,1.94.52,2.65,0-.12.05-.25.08-.38a5,5,0,0,0,.14-1.44c-.18-.26-.37-.55-.54-.83C629.86,437.83,629.77,437.7,629.69,437.57Zm-8.45-9.33.29,0c2.13.14,4.9.32,5.84,3.55,0-.81.06-1.58,0-2.33-.12-2.37-.42-4.84-.78-7.3C625.19,425,623.37,427.22,621.24,428.24ZM625.35,414a32.61,32.61,0,0,0-3.42,10.82,20.52,20.52,0,0,0,4-7.1C625.73,416.48,625.53,415.22,625.35,414Zm1.91-3.92q.11,1,.24,2a34.78,34.78,0,0,0,.52-3.56C627.77,409,627.51,409.55,627.26,410.06ZM627,386c0,.58,0,1.16,0,1.73-.18,6.06-.36,11.89-.09,17.49a27.41,27.41,0,0,0,2.7-9.33c.22-3.23-1-6.25-2.38-9.45Zm3.17,17.5c.46.39,1.26-6.09,1.85-5.88l.36.12c2-5.57,2.9-21.59-.45-24.27-.87-.7-1.34,5.6-2.47,6.56a1.19,1.19,0,0,1-2-.69c-.12-.6-.23-1.2-.34-1.81,0,.41,0,.81,0,1.22s.22,1.07.35,1.61a39.13,39.13,0,0,0,1.88,5.16c1.38,3.31,2.82,6.74,2.56,10.53A25.72,25.72,0,0,1,630.21,403.53Zm-43.1-80c-9.93,0-22,5.24-26.84,12.63-1.83,2.79-2.09,5.25-2.4,8.09a30.53,30.53,0,0,1-1.08,6c-.34,1.1-.67,2.11-1,3.06-1.32,4-2.28,6.89-1.73,11.92,1.53,14,3.61,23,6.21,26.84.7-2.79-.31-5.13-1.44-7.78a23.22,23.22,0,0,1-1.88-5.82,10.75,10.75,0,0,1,1.84-8.22,9.43,9.43,0,0,0,1.78-6.28,18.34,18.34,0,0,0-1.27-4.78c-1.31-3.69-2.8-7.87.58-10.92,1.31-1.18,4.31-1.56,9.11-2.08,3.18-.34,6.46-.69,8.17-1.4s4-1.85,6.22-3c8.12-4.16,18.22-9.34,25.26-4.9,6.06,3.82,12.12,16.5,15,23.68a106.06,106.06,0,0,0-5.49-16.76c-2.42-4.18-5.55-5.86-9.49-8-.83-.45-1.69-.91-2.58-1.42a22.59,22.59,0,0,1-5.31-4.68c-1.85-2-3.6-3.92-6.14-4.92A20.77,20.77,0,0,0,587.11,323.57Zm4.75-2a20.1,20.1,0,0,1,3.68,1c3.05,1.2,5.07,3.4,7,5.53a20,20,0,0,0,4.73,4.22c.86.5,1.71.95,2.53,1.39,1.56.84,3,1.64,4.44,2.57a33.71,33.71,0,0,0-10.12-10.69A26.52,26.52,0,0,0,591.86,321.58Z" transform="translate(-498.45 -270.21)"/><path class="cls-2" d="M632.67,373.36l2.46.41a6.46,6.46,0,0,1,1.38.33c.27.12.28.13.33.36l3,13.28c0,.23,0,.24-.14.46a5.78,5.78,0,0,1-1.11.9l-2,1.45a15.08,15.08,0,0,0-.35-4.05l-2.14-9.35A14.66,14.66,0,0,0,632.67,373.36Zm-81,18.54a15,15,0,0,0,.34,4l2.14,9.36a14.94,14.94,0,0,0,1.45,3.79l-2.45-.42a6.59,6.59,0,0,1-1.39-.33c-.26-.12-.27-.12-.33-.36l-3-13.28c-.06-.23-.05-.24.14-.47a7.65,7.65,0,0,1,1.1-.9Zm13.56-12.73,49.73-11.37c7.65-1.75,15.1,2.65,16.76,9.91l2.14,9.35c1.66,7.25-3.13,14.45-10.78,16.2L609.3,406.4a4.11,4.11,0,0,1-3.09-.36,11.84,11.84,0,0,1-2.67-2.16,18.23,18.23,0,0,0-3-2.58,6.15,6.15,0,0,0-3.29-.58l-1.89.43a6.35,6.35,0,0,0-2.71,2,18.11,18.11,0,0,0-1.55,3.62,12.06,12.06,0,0,1-1.46,3.1A4.13,4.13,0,0,1,587,411.5l-13.73,3.14c-7.65,1.75-15.1-2.65-16.76-9.9l-2.14-9.36c-1.66-7.25,3.14-14.45,10.79-16.2Zm.16-8.35,45.81-10.48a13.91,13.91,0,0,1,15.69,7,17.07,17.07,0,0,0-12.46-1.85l-49.73,11.38a17,17,0,0,0-10.4,7.08A13.9,13.9,0,0,1,565.35,370.82Zm-.53-2.31c-9,2.05-14.65,10.58-12.7,19.08a1.17,1.17,0,0,0,.19.41c-.07.19-.11.39-.17.59l-4,2.85a7.74,7.74,0,0,0-1.59,1.36,3,3,0,0,0-.64,2.46l3,13.28a3,3,0,0,0,1.65,1.94,7.25,7.25,0,0,0,2,.54l4.85.82A16.71,16.71,0,0,0,573.84,417l13.73-3.14a6.93,6.93,0,0,0,4.12-2.64,13.54,13.54,0,0,0,1.81-3.74,16.59,16.59,0,0,1,1.33-3.13,2.77,2.77,0,0,1,1.95-1.46,2.84,2.84,0,0,1,2.39.46,17.26,17.26,0,0,1,2.55,2.25,12.91,12.91,0,0,0,3.26,2.58,7,7,0,0,0,4.86.59l13.73-3.14a16.73,16.73,0,0,0,12.52-11.74l4-2.84a7.86,7.86,0,0,0,1.59-1.37,3,3,0,0,0,.62-2.46l-3-13.28a3,3,0,0,0-1.63-1.94,7.61,7.61,0,0,0-2-.54l-4.86-.82c-.13-.15-.25-.3-.38-.44a1.25,1.25,0,0,0,0-.47c-1.94-8.5-10.76-13.71-19.72-11.66l-45.81,10.48Z" transform="translate(-498.45 -270.21)"/><path class="cls-3" d="M565.37,379.06l49.73-11.38c7.65-1.74,15.09,2.66,16.75,9.91L634,387c1.66,7.25-3.13,14.45-10.78,16.2l-13.73,3.14a4.13,4.13,0,0,1-3.1-.36,11.8,11.8,0,0,1-2.66-2.16,17.84,17.84,0,0,0-3-2.58,6.23,6.23,0,0,0-3.29-.59l-1.89.44a6.18,6.18,0,0,0-2.7,2,17.75,17.75,0,0,0-1.56,3.61,11.59,11.59,0,0,1-1.46,3.1,4.18,4.18,0,0,1-2.63,1.68l-13.73,3.14c-7.65,1.75-15.09-2.65-16.75-9.91l-2.14-9.35c-1.66-7.25,3.13-14.45,10.78-16.2Z" transform="translate(-498.45 -270.21)"/><path class="cls-3" d="M565.4,370.82l45.81-10.48a13.92,13.92,0,0,1,15.7,7,17.08,17.08,0,0,0-12.46-1.85l-49.73,11.38a17,17,0,0,0-10.41,7.08A13.9,13.9,0,0,1,565.4,370.82Z" transform="translate(-498.45 -270.21)"/><path class="cls-3" d="M632.67,373.36l2.46.41a6.46,6.46,0,0,1,1.38.33c.27.12.28.13.33.36l3,13.28c0,.23,0,.24-.14.46a5.78,5.78,0,0,1-1.11.9l-2,1.45a15.08,15.08,0,0,0-.35-4.05l-2.14-9.35A14.66,14.66,0,0,0,632.67,373.36Z" transform="translate(-498.45 -270.21)"/><path class="cls-3" d="M551.63,391.9a15,15,0,0,0,.34,4l2.14,9.36a14.94,14.94,0,0,0,1.45,3.79l-2.45-.42a6.59,6.59,0,0,1-1.39-.33c-.26-.12-.27-.12-.33-.36l-3-13.28c-.06-.23-.05-.24.14-.47a7.65,7.65,0,0,1,1.1-.9Z" transform="translate(-498.45 -270.21)"/><path class="cls-1" d="M586.68,377.33a1.19,1.19,0,1,0,.66,2.29l7.84-1.79a1.2,1.2,0,1,0-.53-2.32l-7.84,1.79Z" transform="translate(-498.45 -270.21)"/><path class="cls-4" d="M657.43,321.11c-6.4-1.9-10.22-2.55-15,2.14s-.92,7.18,3.5,12.16S663.84,323,657.43,321.11Z" transform="translate(-498.45 -270.21)"/><path class="cls-4" d="M648.77,286.22c-2.59,5.78,2.07,9.08,8.89,11.78,7.69,3,14.45,4.44,18.67-.44s10.89-7.19,9.78-12.67c-1.22-6-4.38-14.83-16.45-13.56C657,272.67,648.77,286.22,648.77,286.22Z" transform="translate(-498.45 -270.21)"/></g></svg>