{"accessors" : [{"bufferView" : 0, "byteOffset" : 0, "componentType" : 5123, "count" : 708, "type" : "SCALAR", "max" : [707], "min" : [0]}, {"bufferView" : 1, "byteOffset" : 0, "componentType" : 5126, "count" : 708, "type" : "VEC3", "max" : [37.326507568359375, 5.269604206085205, -6.213639259338379], "min" : [-37.32692337036133, -2.9277961254119873, -34.69211959838867], "name" : "POSITION"}, {"bufferView" : 1, "byteOffset" : 12, "componentType" : 5126, "count" : 708, "type" : "VEC3", "max" : [0.9755916595458984, 0.9991218447685242, 0.9890850782394409], "min" : [-0.9755916595458984, -0.9985836744308472, -0.9829267263412476], "name" : "NORMAL"}, {"bufferView" : 1, "byteOffset" : 24, "componentType" : 5126, "count" : 708, "type" : "VEC3", "max" : [0.9971032738685608, 0.9999043345451355, 0.9791457653045654], "min" : [-0.9997568130493164, -0.9999043345451355, -0.9791457653045654], "name" : "BINORMAL_0"}, {"bufferView" : 1, "byteOffset" : 36, "componentType" : 5126, "count" : 708, "type" : "VEC3", "max" : [0.997002899646759, 0.7917822599411011, 0.9358457922935486], "min" : [-0.9970028400421143, -0.980728030204773, -0.9994239211082458], "name" : "TANGENT_0"}, {"bufferView" : 1, "byteOffset" : 48, "componentType" : 5126, "count" : 708, "type" : "VEC2", "max" : [0.9985484480857849, -0.04971611499786377], "min" : [0.0012516975402832031, -0.6644796133041382], "name" : "TEXCOORD_0"}], "asset" : {"generator" : "Aspose.3D 21.3.1", "version" : "2.0"}, "buffers" : [{"uri" : "buffer.bin", "byteLength" : 41072}], "bufferViews" : [{"buffer" : 0, "byteOffset" : 0, "byteLength" : 1416, "target" : 34963}, {"buffer" : 0, "byteOffset" : 1420, "byteLength" : 39648, "byteStride" : 56, "target" : 34962}], "images" : [{"uri" : "F:/Mine Arbeider/Unluck Software/Unity/BirdFlock Seagull/Assets/Seagull Flock/Textures/Gull TEX.tif"}], "materials" : [{"pbrMetallicRoughness" : {"baseColorFactor" : [1, 1, 1, 0], "baseColorTexture" : {"index" : 0, "texCoord" : 0}, "metallicFactor" : 0, "roughnessFactor" : 0}, "emissiveFactor" : [1, 1, 1], "alphaMode" : "BLEND", "doubleSided" : false}], "meshes" : [{"primitives" : [{"attributes" : {"POSITION" : 1, "NORMAL" : 2, "BINORMAL_0" : 3, "TANGENT_0" : 4, "TEXCOORD_0" : 5}, "indices" : 0, "material" : 0, "mode" : 4}]}], "nodes" : [{"mesh" : 0, "name" : "Seagull_MESH"}], "samplers" : [{"magFilter" : 9729, "minFilter" : 9729, "wrapS" : 10497, "wrapT" : 10497}], "scene" : 0, "scenes" : [{"nodes" : [0]}], "textures" : [{"sampler" : 0, "source" : 0}]}