{
    "asset" : {
        "generator" : "Khronos glTF Blender I/O v1.4.40",
        "version" : "2.0"
    },
    "scene" : 0,
    "scenes" : [
        {
            "name" : "Scene",
            "nodes" : [
                0
            ]
        }
    ],
    "nodes" : [
        {
            "mesh" : 0,
            "name" : "Plane",
            "rotation" : [
                0.5089719295501709,
                0.490864098072052,
                -0.49086418747901917,
                0.5089718699455261
            ],
            "scale" : [
                18.92340850830078,
                18.92340850830078,
                18.92340850830078
            ],
            "translation" : [
                -15.302602767944336,
                93.3677749633789,
                5.734060287475586
            ]
        }
    ],
    "materials" : [
        {
            "doubleSided" : true,
            "name" : "Material.004",
            "pbrMetallicRoughness" : {
                "baseColorFactor" : [
                    0.800000011920929,
                    0.800000011920929,
                    0.800000011920929,
                    1
                ],
                "metallicFactor" : 0,
                "roughnessFactor" : 0.5
            }
        },
        {
            "doubleSided" : true,
            "name" : "Material.005",
            "pbrMetallicRoughness" : {
                "baseColorFactor" : [
                    0.800000011920929,
                    0.800000011920929,
                    0.800000011920929,
                    1
                ],
                "metallicFactor" : 0,
                "roughnessFactor" : 0.5
            }
        },
        {
            "doubleSided" : true,
            "name" : "Material.006",
            "pbrMetallicRoughness" : {
                "baseColorFactor" : [
                    0.800000011920929,
                    0.800000011920929,
                    0.800000011920929,
                    1
                ],
                "metallicFactor" : 0,
                "roughnessFactor" : 0.5
            }
        }
    ],
    "meshes" : [
        {
            "name" : "Plane",
            "primitives" : [
                {
                    "attributes" : {
                        "POSITION" : 0,
                        "NORMAL" : 1
                    },
                    "indices" : 2,
                    "material" : 0
                },
                {
                    "attributes" : {
                        "POSITION" : 3,
                        "NORMAL" : 4
                    },
                    "indices" : 5,
                    "material" : 1
                },
                {
                    "attributes" : {
                        "POSITION" : 6,
                        "NORMAL" : 7
                    },
                    "indices" : 8,
                    "material" : 2
                }
            ]
        }
    ],
    "accessors" : [
        {
            "bufferView" : 0,
            "componentType" : 5126,
            "count" : 1948,
            "max" : [
                1.2135610580444336,
                1.5051380395889282,
                0.4719330072402954
            ],
            "min" : [
                -0.9842389822006226,
                -1.1847050189971924,
                -1.165824055671692
            ],
            "type" : "VEC3"
        },
        {
            "bufferView" : 1,
            "componentType" : 5126,
            "count" : 1948,
            "type" : "VEC3"
        },
        {
            "bufferView" : 2,
            "componentType" : 5123,
            "count" : 11328,
            "type" : "SCALAR"
        },
        {
            "bufferView" : 3,
            "componentType" : 5126,
            "count" : 321,
            "max" : [
                1.2103190422058105,
                1.8186299800872803,
                0.4719330072402954
            ],
            "min" : [
                -0.9809799790382385,
                -0.039073001593351364,
                -0.5761240124702454
            ],
            "type" : "VEC3"
        },
        {
            "bufferView" : 4,
            "componentType" : 5126,
            "count" : 321,
            "type" : "VEC3"
        },
        {
            "bufferView" : 5,
            "componentType" : 5123,
            "count" : 1632,
            "type" : "SCALAR"
        },
        {
            "bufferView" : 6,
            "componentType" : 5126,
            "count" : 193,
            "max" : [
                1.0788060426712036,
                1.1028820276260376,
                0.3208189904689789
            ],
            "min" : [
                -0.8494669795036316,
                0.5715489983558655,
                -0.42501100897789
            ],
            "type" : "VEC3"
        },
        {
            "bufferView" : 7,
            "componentType" : 5126,
            "count" : 193,
            "type" : "VEC3"
        },
        {
            "bufferView" : 8,
            "componentType" : 5123,
            "count" : 1056,
            "type" : "SCALAR"
        }
    ],
    "bufferViews" : [
        {
            "buffer" : 0,
            "byteLength" : 23376,
            "byteOffset" : 0
        },
        {
            "buffer" : 0,
            "byteLength" : 23376,
            "byteOffset" : 23376
        },
        {
            "buffer" : 0,
            "byteLength" : 22656,
            "byteOffset" : 46752
        },
        {
            "buffer" : 0,
            "byteLength" : 3852,
            "byteOffset" : 69408
        },
        {
            "buffer" : 0,
            "byteLength" : 3852,
            "byteOffset" : 73260
        },
        {
            "buffer" : 0,
            "byteLength" : 3264,
            "byteOffset" : 77112
        },
        {
            "buffer" : 0,
            "byteLength" : 2316,
            "byteOffset" : 80376
        },
        {
            "buffer" : 0,
            "byteLength" : 2316,
            "byteOffset" : 82692
        },
        {
            "buffer" : 0,
            "byteLength" : 2112,
            "byteOffset" : 85008
        }
    ],
    "buffers" : [
        {
            "byteLength" : 87120,
            "uri" : "data:application/octet-stream;base64,"
        }
    ]
}
