{
    "asset" : {
        "generator" : "Khronos glTF Blender I/O v1.4.40",
        "version" : "2.0"
    },
    "scene" : 0,
    "scenes" : [
        {
            "name" : "Scene",
            "nodes" : [
                0
            ]
        }
    ],
    "nodes" : [
        {
            "extras" : {
                "currentUVSet" : "map1"
            },
            "mesh" : 0,
            "name" : "Basemesh_arshlevon__1_:lowman_shoes",
            "rotation" : [
                0.5044869780540466,
                0.49547240138053894,
                -0.4954724907875061,
                0.5044868588447571
            ],
            "scale" : [
                4.087433338165283,
                4.087433338165283,
                4.0874342918396
            ],
            "translation" : [
                -25.653766632080078,
                -223.53204345703125,
                3.1110897064208984
            ]
        }
    ],
    "materials" : [
        {
            "doubleSided" : true,
            "name" : "lambert1",
            "pbrMetallicRoughness" : {
                "baseColorFactor" : [
                    0.5,
                    0.5,
                    0.5,
                    1
                ],
                "metallicFactor" : 0,
                "roughnessFactor" : 0.5527864098548889
            }
        }
    ],
    "meshes" : [
        {
            "name" : "Mesh",
            "primitives" : [
                {
                    "attributes" : {
                        "POSITION" : 0,
                        "NORMAL" : 1,
                        "TANGENT" : 2,
                        "TEXCOORD_0" : 3
                    },
                    "indices" : 4,
                    "material" : 0
                }
            ]
        }
    ],
    "accessors" : [
        {
            "bufferView" : 0,
            "componentType" : 5126,
            "count" : 5861,
            "max" : [
                13.48990249633789,
                7.34625768661499,
                -55.76387023925781
            ],
            "min" : [
                -13.489904403686523,
                -5.411797046661377,
                -82.80611419677734
            ],
            "type" : "VEC3"
        },
        {
            "bufferView" : 1,
            "componentType" : 5126,
            "count" : 5861,
            "type" : "VEC3"
        },
        {
            "bufferView" : 2,
            "componentType" : 5126,
            "count" : 5861,
            "type" : "VEC4"
        },
        {
            "bufferView" : 3,
            "componentType" : 5126,
            "count" : 5861,
            "type" : "VEC2"
        },
        {
            "bufferView" : 4,
            "componentType" : 5123,
            "count" : 28992,
            "type" : "SCALAR"
        }
    ],
    "bufferViews" : [
        {
            "buffer" : 0,
            "byteLength" : 70332,
            "byteOffset" : 0
        },
        {
            "buffer" : 0,
            "byteLength" : 70332,
            "byteOffset" : 70332
        },
        {
            "buffer" : 0,
            "byteLength" : 93776,
            "byteOffset" : 140664
        },
        {
            "buffer" : 0,
            "byteLength" : 46888,
            "byteOffset" : 234440
        },
        {
            "buffer" : 0,
            "byteLength" : 57984,
            "byteOffset" : 281328
        }
    ],
    "buffers" : [
        {
            "byteLength" : 339312,
            "uri" : "data:application/octet-stream;base64,"
        }
    ]
}
